<?xml version="1.0" encoding="UTF-8"?>
<!-- Generator: Adobe Illustrator 21.0.2, SVG Export Plug-In . SVG Version: 6.00 Build 0)  -->
<svg version="1.1" id="Layer_1" xmlns="http://www.w3.org/2000/svg" xmlns:xlink="http://www.w3.org/1999/xlink" x="0px" y="0px" viewBox="0 0 453.6 74.7" style="enable-background:new 0 0 453.6 74.7;" xml:space="preserve">
<style type="text/css">
	.st0{fill:#E40134;}
	.st1{fill:#FFFFFF;}
	.st2{fill:#007A33;}
</style>
<title>logo-horizontal</title>
<g>
	<g>
		<g>
			<rect y="1.3" class="st0" width="359" height="71.8"/>
			<g>
				<path class="st1" d="M250.5,14.3c3.2,0,5.2,1.2,8.3,5.1l22.4,32.1c1.3,2,0.9,4.6-1,6.1c-2,1.7-5,1.5-6.7-0.5      c0,0-0.1-0.1-0.1-0.1l-5.4-7.4h-35.3l-5.4,7.6c-1.4,2-4.2,2.4-6.1,1c-0.1,0-0.1-0.1-0.2-0.1c-2.1-1.3-2.7-4.1-1.4-6.2      c0,0,0,0,0,0l22.7-32.3C245.2,15.4,247.4,14.3,250.5,14.3z M251.9,26.2c-0.6-0.9-0.8-1-1.4-1s-1,0.4-1.5,1      c-0.8,1-9.8,14.3-9.9,14.3h22.7C261.8,40.5,253.1,28.1,251.9,26.2z"/>
				<path class="st1" d="M97.4,14.4h32.4c8,0,8.8,9.2,8.8,9.2H98.7c-2.1,0-3.8,1.7-3.8,3.8c0,0.1,0,0.2,0,0.2      c-0.2,2.2,1.5,4.1,3.7,4.4h28.1c5.6,0,13.5,4.6,13.5,12.7c0,10.4-9.2,14.1-12.4,14.1H94.8c-9.8,0-9.2-9.3-9.2-9.3h40.8      c2.1-0.1,3.9-1.9,4-4c0-2.1-1.6-3.8-3.7-4.1H99.2c-7.4,0.2-13.7-5.6-13.9-13.1c0-0.2,0-0.4,0-0.6C85.3,18.8,92.9,14.4,97.4,14.4      z"/>
				<path class="st1" d="M304.7,14.3h33.4c5.1,0,12.9,4.1,12.9,14V29c-0.1,5.2-3.2,9.9-7.9,12.1c0,0,0.3,0.5,7.5,10.3      c1.1,2,0.7,4.6-1.1,6.2c-1.9,1.7-5.2,2-6.8,0.1c-2.3-2.6-4.9-6.1-12.1-15.3h-13c-3.7,0-8.8-3-8.8-9.5H337c2.3-0.2,4-2.1,4-4.4      c0-2.3-1.7-4.2-4-4.5h-31.2v29.5c0.2,2.8-2,5.2-4.8,5.4c-2.8,0.2-5.2-2-5.4-4.8c0-0.1,0-0.3,0-0.4V23.4      C295.7,18.4,301,14.3,304.7,14.3z"/>
				<path class="st1" d="M167,14.4h33.4c5.1,0,12.9,4.1,12.9,14V29c-0.1,5.2-3.2,9.9-7.9,12.1c-1.5,0.5-3.1,0.8-4.6,1.1h-21      c-3.7,0-8.5-3-8.5-9.5h27.9c2.3-0.1,4-2,4.1-4.3c0-2.3-1.7-4.2-4-4.5h-31.1v29.6c0.2,2.8-2,5.2-4.8,5.4c-2.8,0.2-5.2-2-5.4-4.8      c0-0.1,0-0.3,0-0.4V23.5C158,18.5,163.3,14.4,167,14.4z"/>
			</g>
		</g>
		<g>
			<path class="st2" d="M377.1,38.3c0,13.8,6.9,26.1,19.1,32.1c11.5,5.7,26.8,5.7,38.3,0c11.4-5.6,19.1-18.4,19.1-32.1     c0-21.1-17.1-38.3-38.2-38.3C394.2,0,377.1,17.1,377.1,38.3C377.1,38.3,377.1,38.3,377.1,38.3L377.1,38.3z"/>
			<path class="st1" d="M415.4,9.9C411.5,23,400,42.1,391.7,51.5h19.9v5.7c0,3.2-2.6,6.6-6.3,6.5c-6.4-0.1-12.4-3.5-15.6-9.1     c-2.9-4.8-4.9-8.7-4.9-16.3c0-16.9,13.7-30.6,30.5-30.6c0,0,0.1,0,0.1,0c16.8,0.2,30.4,13.8,30.6,30.6     c-0.2,5.7-1.8,11.3-4.8,16.2c-3.2,5.6-9.1,9-15.5,9.2c-3.5,0.1-6.4-2.7-6.5-6.2c0-0.1,0-0.3,0-0.4v-5.7h20.1     C430.7,42.1,419.2,23,415.4,9.9z"/>
		</g>
	</g>
</g>
</svg>