<svg id="Layer_1" data-name="Layer 1" xmlns="http://www.w3.org/2000/svg" viewBox="0 0 120.34 147.88">
  <defs>
    <style>
      .cls-1 {
        fill: #fff;
      }

      .cls-2 {
        fill: #e2002b;
      }

      .cls-3 {
        fill: #007933;
      }
    </style>
  </defs>
  <title>logo-vertical</title>
  <g>
    <rect class="cls-1" width="120.34" height="147.88"/>
    <rect class="cls-2" x="4.54" y="116.01" width="111.25" height="27.35"/>
    <path class="cls-1" d="M72.49,121.05c1.22,0,2,.45,3.14,1.91l8.56,12.26a1.73,1.73,0,0,1-.38,2.33,1.82,1.82,0,0,1-2.6-.24l-2-2.84H65.7l-2.05,2.89a1.64,1.64,0,0,1-2.4.32,1.72,1.72,0,0,1-.54-2.38L69.35,123c1.09-1.51,2-1.91,3.14-1.91m.51,4.53c-.23-.34-.32-.37-.55-.37s-.38.13-.56.38-3.72,5.45-3.72,5.45H76.8s-3.32-4.76-3.8-5.46"/>
    <path class="cls-1" d="M14.11,121.1h12.3c3.06,0,3.34,3.52,3.34,3.52H14.61a1.47,1.47,0,0,0-1.46,1.55,1.56,1.56,0,0,0,1.4,1.66H25.25c2.11,0,5.14,1.76,5.14,4.81A5.3,5.3,0,0,1,25.66,138H13.15a3.3,3.3,0,0,1-3.52-3.55h15.5a1.63,1.63,0,0,0,1.54-1.53,1.59,1.59,0,0,0-1.39-1.55H14.81a5.13,5.13,0,0,1-5.29-5.21,5,5,0,0,1,4.59-5.07"/>
    <path class="cls-1" d="M93.13,121.06h12.75a5.09,5.09,0,0,1,4.91,5.33v.24a5.22,5.22,0,0,1-3,4.63s.13.19,2.88,3.91a1.91,1.91,0,0,1-.42,2.32,1.87,1.87,0,0,1-2.59,0c-.86-1-1.87-2.33-4.63-5.83H98a3.44,3.44,0,0,1-3.34-3.61h10.76a1.69,1.69,0,0,0,1.52-1.67,1.75,1.75,0,0,0-1.54-1.72H93.56v11.26A2,2,0,0,1,91.61,138a2,2,0,0,1-1.92-2V124.52a3.81,3.81,0,0,1,3.44-3.47"/>
    <path class="cls-1" d="M40.67,121.07H53.4a5.11,5.11,0,0,1,4.93,5.35v.24a5.24,5.24,0,0,1-3,4.64,12,12,0,0,1-1.77.4h-8a3.38,3.38,0,0,1-3.24-3.64H52.94a1.64,1.64,0,0,0,1.55-1.63A1.73,1.73,0,0,0,53,124.71H41.09l0,11.26a1.94,1.94,0,1,1-3.89,0V124.55a3.82,3.82,0,0,1,3.45-3.48"/>
    <path class="cls-3" d="M9.52,60.63c0,18.21,9.16,34.5,25.3,42.47,15.17,7.5,35.39,7.5,50.61,0,15-7.38,25.25-24.27,25.25-42.47a50.58,50.58,0,1,0-101.17,0"/>
    <path class="cls-1" d="M60.13,23.14C55,40.41,39.87,65.71,28.79,78.12H55l0,7.52c0,4.26-3.44,8.69-8.38,8.63a24.1,24.1,0,0,1-20.59-12c-3.77-6.4-6.51-11.47-6.51-21.59A40.43,40.43,0,0,1,60.09,20.15c22.43,0,40.51,18.86,40.51,40.47,0,10.13-4.74,18.9-6.3,21.42-5.54,9-14,12.14-20.5,12.22a8.4,8.4,0,0,1-8.64-8.66V78.12H91.81c-11.47-12.41-26.64-37.71-31.68-55"/>
  </g>
</svg>
